<?xml version="1.0" encoding="utf-8"?>
<!-- Generator: Adobe Illustrator 27.3.1, SVG Export Plug-In . SVG Version: 6.00 Build 0)  -->
<svg version="1.1" id="Layer_1" xmlns="http://www.w3.org/2000/svg" xmlns:xlink="http://www.w3.org/1999/xlink" x="0px" y="0px"
	 viewBox="0 0 722.09 989.33" style="enable-background:new 0 0 722.09 989.33;" xml:space="preserve">
<style type="text/css">
	.st0{fill:none;stroke:#000000;stroke-width:5.6103;stroke-linecap:round;stroke-miterlimit:10;}
</style>
<path d="M580.68,302.9c0.22-2.55,0.36-5.13,0.33-7.68c0-1.03-0.14-2.02-0.39-2.99c1.11-9.32,1.47-18.94,2.41-27.73
	c1.53-14.53,2.55-29.73-0.94-44.09c-0.03-0.19-0.03-0.39-0.06-0.58c-0.39-3.05-1.08-6.05-1.77-9.04c-0.44-2.69-0.94-5.35-1.64-8.01
	c0-0.03,0-0.03,0-0.06c-0.03-0.03-0.03-0.03-0.03-0.06c-0.11-0.39-0.22-0.78-0.33-1.16c-0.06-0.22-0.11-0.44-0.19-0.64
	c-1.08-3.83-2.38-7.63-4.05-11.4c-0.53-1.25-1.28-2.3-2.19-3.19l0.22-0.17c10.23,10.98,13.51,11.81,16.83,20
	c5.69,13.92,2.66,31.56,0.33,45.87C586.45,268.98,583.23,285.87,580.68,302.9z"/>
<g>
	<path d="M480.61,100.79c0.27,7.6,0.85,15.17,1.64,22.73c0.46,4.72,1.1,9.38,2.54,13.88c0.9,2.66,2.24,5.19,3.39,7.76
		c3.28,6.85,6.27,13.88,9.68,20.6c1.62,3.4,3.95,6.15,7.19,8.01c7.67,4.66,13.1,2.74,20.29-1.76c16.3-9.67,27.19-26.49,33.87-43.9
		c2.72-7.07,4.63-14.45,5.82-21.96c-0.77,7.57-2.51,15.04-4.96,22.27c-6.31,17.91-17.22,35.2-33.83,45.13
		c-7.76,4.96-13.76,6.85-22.13,1.73c-3.45-1.99-6.12-5.19-7.75-8.74c-1.74-3.43-3.28-6.9-4.85-10.37
		c-2.65-6.13-5.64-12.11-7.9-18.41c-1.37-4.6-1.94-9.42-2.27-14.16C480.85,116,480.46,108.39,480.61,100.79L480.61,100.79z"/>
</g>
<path d="M508.98,307.95c-6.16-10.29-8.99-22.55-8.1-34.5c0.97-12.56,6.49-24.82,10.51-36.63c5.52-16.11,12.15-31.81,19.77-46.9
	c-9.65,12.46-17.58,26.11-25.94,39.49c-6,9.61-8.86,20-11.11,31.03c-1.75,8.54-1.97,17.36-3.61,25.85
	c-5.3-0.25-11.84-4.22-16.53-6.66c-5.57-2.86-10.87-6.21-15.84-9.98c-6.71-5.05-12.81-10.84-18.19-17.28
	c-5.63-6.68-10.68-12.06-7.52-21.1c4.92-14.08,12.2-26.95,19.5-39.89c2.44-4.32,4.83-8.66,7.18-13.03c1.22-2.26,2.42-4.52,3.61-6.79
	c0.84-1.61,2.51-3.57,3.07-5.25c0.31-1.07,0.59-2.16,0.85-3.24c0.46-1.99,1.24-3.65,2.22-5.01c-0.02-0.06-0.05-0.11-0.07-0.17
	c-0.28,0.42-0.55,0.86-0.83,1.28c-13.42,20.69-16.22,18.78-26.54,35.08c-6.57,10.48-11.45,22.02-14.39,34
	c-2.83,11.54-4.85,24.74,2.75,35.03c7.52,10.12,13.31,20.85,16.17,33.22c0.75,3.24,1.33,6.57,1.28,9.9
	c-0.03,3.91-0.86,7.74-1.89,11.51c-4.08,14.86-11.07,28.76-15.7,43.46c-5.08,16.11-7.27,32.97-7.99,49.78
	c-0.36,8.49-0.33,17-0.17,25.49c0.08,4.24,0.22,8.49,0.39,12.73c0.03,0.97,1.33,10.29,0.72,10.76c18.25-14,36.83-28.34,52.22-45.56
	c6.93-7.74,13.2-16.08,20.24-23.74c3.63-3.94,7.49-7.68,11.68-10.98c3.3-2.58,9.98-5.21,11.48-9.37c0.89-2.41-0.39-7.35-0.39-9.98
	c-0.03-3.83,0.11-7.65,0.39-11.45c0.17-2.33,3.66-29.37,5.05-29.37C516.97,318.65,512.26,313.41,508.98,307.95z"/>
<path d="M606.12,362.86c-9.07-8.39-19.65-13.8-32.82-15.52c-0.3-0.04-0.58-0.12-0.87-0.17c-0.13,0.24-0.27,0.48-0.4,0.72
	c1.7,1.06,3.39,2.12,5.09,3.18c3.75,1.74,22.07,10.36,23.85,15.58c0.12,0.36,0.47,1.38,0,2.23c-1.08,1.94-4.48,1.64-6.21,1.07
	c-3.03-1.01-3.49-3.48-5.08-5.95c-2.16-3.33-5.86-5.37-9.64-6.58c-1.04-0.33-12.76-3.17-12.81-2.98
	c-2.9,11.08-6.61,21.94-11.09,32.48c-1.11,2.6-2.27,5.2-3.93,7.5c-1.94,2.69-4.48,4.87-6.99,7.03c-16.32,13.99-32.66,28-49.75,41.05
	c-8.53,6.51-17.23,12.79-26.2,18.69c-7.28,4.79-16.83,8.64-22.04,15.9c-1.65,2.3-2.98,4.85-5,6.83c-2.97,2.92-7.09,4.29-10.75,6.29
	c-2.89,1.58-6.51,4.11-9.27,7.12c-0.25,12.82,4.42,26.94,7.58,39.29c3.41,13.33,7.7,26.49,13.81,38.85
	c10.38,20.96,25.65,38.97,41.58,55.9c15.37,16.35,36.75,20.56,58.28,22.63c1.24,0.12,14.9,1.36,14.9,1.37
	c3.79-37.07,12.46-74.58,20.94-110.83c8.65-37.01,19.29-73.7,23.74-111.45c1.24-10.55,1.94-21.31,0.49-31.87
	c-0.69-5.03-1.86-10-3.72-14.73c-0.62-1.58-3.91-10.79-5.73-11.24c5.89,1.48,9.45,4.05,11.66,6.25c4.11,4.1,6.17,9.58,7.63,9.11
	c0.66-0.21,0.8-1.52,0.85-2.12c0.87-10.77-4.03-19.61-4.03-19.61C608.94,366.63,607.55,364.66,606.12,362.86z"/>
<path d="M556.93,688.38c-0.31-3.99-0.83-7.57-1.97-14.73c-0.4-2.56-0.79-4.75-1.21-6.65c-0.46-0.04-0.93-0.08-1.39-0.12
	c-1.58,0.56-3.39,0.84-5.45,0.72c-13.42-0.77-26.6-4-39.54-7.52c-4.31-1.17-8.39-2.77-12.33-4.85c2.26,1.2,1.76,13.36,1.89,15.47
	c0.39,6.21,0.65,12.43,0.96,18.65c2.46,50.41,15.23,101.12,29.36,149.4c1.45,4.95,2.94,9.89,4.46,14.83c0.76,2.47,1.53,4.94,2.3,7.4
	c0.52,1.67,2.7,5.75,2.34,7.4c0.21-0.95,0.34-1.65,0.36-1.76c0.66-4.66,1.91-9.26,2.65-13.93c3.66-23.02,3.91-46.57,7.21-69.75
	C551.01,751.65,559.44,720.1,556.93,688.38z"/>
<path d="M456.96,613.44c2.4,3.52,4.81,7.05,7.21,10.57c4.21,6.18,8.42,12.35,12.63,18.53c1.12,1.64,2.23,3.28,3.35,4.92
	c3.36,4.93,5.3,10.91,6.3,16.95c0.81,4.9,0.59,9.72,0.59,14.66c0,1.73,0,3.46,0,5.19c0,0.39-0.22,1.85,0,2.19
	c-3.08-4.58-6.16-9.56-9.12-14.98C466.48,650.6,460.35,630.22,456.96,613.44z"/>
<path d="M433.61,201.31c-0.08,3.5-1.68,6.62-4.88,12.72c-3.21,6.12-5.78,11.27-10.17,16.32c-6.16,7.08-9.79,7.93-17.57,14.11
	c-6.09,4.84-18.48,15.1-25,31.07c-2.88,7.07-4,14.69-4.33,22.28c-0.31,7.06,0.7,14.27-0.37,21.25c-0.37,2.41-0.93,4.93-2.49,5.38
	c-0.73,0.21-1.63-0.06-2.17-0.61c-1.29-1.32-0.35-4.11,0.11-5.72c0.46-1.63,3.22-11.33-0.11-16.75c-2.09-3.4-6.18-4.48-8.06-4.98
	c-3.09-0.82-5.83-0.31-8.87,0c3.09-4.21,7.36-7.87,10.74-11.94c3.59-4.34,7-8.82,10.35-13.34c6.71-9.07,13.16-18.34,20.31-27.08
	c9.01-11,12.21-14.09,17.22-19.99c0,0,2.72-3.23,4.73-5.77c6.39-8.09,10.76-23.64,12.94-32.64
	C428.5,188.03,433.78,193.78,433.61,201.31z"/>
<g>
	<path d="M369.71,327.64c0,0,0.09-0.09,0.09-0.09l0.05-0.04c0.01,0.01-0.02,0.03-0.03,0.04c-0.39,0.39-0.85,0.84-1.29,1.18
		c-2.88,2.37-6.86-0.73-8.14-3.51c-1.27-2.52-0.14-5.36,0.26-7.93c0.62-3.76-0.02-8.13-2.45-11.11c-2.25-2.45-7.67-4.86-8.99-0.3
		c-1.79,6.31-0.64,13.15,0.22,19.56c0,0,0.1,0.63,0.1,0.63l-0.64,0.07c-4.13,0.51-9.31-0.56-11.54-4.53
		c-1.87-3.77-2.9-7.73-4.88-11.41c-1.19-2.46-2.58-4.77-3.95-7.2c-1.07-1.78-2.12-4.4-1.04-6.59c0.46-0.87,1.02-1.28,1.48-1.79
		c1.91-1.93,3.64-4.03,5.5-6.1c3.52-4.23,7.58-8.13,11.8-11.68c4.17-3.58,8.08-7.26,11.29-11.74c3.21-4.41,6.57-8.98,10.22-13.02
		c3.56-4.12,5.94-9.11,8.64-13.82c0,0,7.88-14.5,7.88-14.5c9.33-16.83,18.3-34.32,31.82-48.26c3.75-3.97,8.23-7.31,10.98-12.08
		c1.38-2.33,2.54-4.8,3.37-7.38c2.82-13.25,11.28-26.89,25.11-30.5c2.48-0.63,5.11-0.95,7.64-1.26c0,0,0.26-0.02,0.26-0.02
		c0.01,0,0.07,0,0.04,0c0,0-0.07,0.01-0.07,0.01c-5.34,0.67-10.73,1.86-15.26,4.9c-6.9,4.43-11.71,11.68-14.56,19.25
		c-1.59,5.2-2.56,10.87-5.56,15.59c-2.74,4.9-7.25,8.39-10.99,12.43c-1.88,1.98-3.67,4.05-5.41,6.16
		c-6.9,8.5-12.42,18.09-17.92,27.53c-6.32,11.13-13.42,25.07-19.77,36.24c-2.54,4.93-6.71,8.88-10.04,13.22
		c-3.36,4.35-6.43,9.08-10.37,12.97c-3.92,3.91-8.3,7.27-12.27,11.07c-3.94,3.82-7.25,8.21-11.14,12.15
		c-2.31,1.82-1.54,4.18-0.2,6.47c2.77,4.72,5.32,9.79,7.1,15c0.87,2.5,1.73,5.04,4.15,6.35c2.23,1.32,4.96,1.61,7.61,1.36
		c0,0-0.54,0.7-0.54,0.7c-0.4-2.66-0.69-5.32-0.86-8c-0.27-5.41-0.97-18.71,8.05-14.39c4,1.64,5.74,6.08,5.97,10.09
		c0.37,3.38-1.29,6.57-1.21,9.89c0.35,3.15,3.26,6.25,6.53,6.24c1.26-0.08,2.26-1.15,3.14-1.94c0,0-0.05,0.04-0.05,0.04
		S369.71,327.64,369.71,327.64L369.71,327.64z"/>
</g>
<path d="M522.21,315.13c-2.21,0.66-9.05-9.93-10.81-22.26c-0.56-3.94-0.84-9.73,4.03-27.77c4.75-17.58,10.59-28.24,8.58-16.75
	c-0.7,4.02-2.94,17.54-3.18,33.07C520.49,303.42,524.38,314.49,522.21,315.13z"/>
<path class="st0" d="M416.02,521.63c30.47,100.3,65.47,199.23,92.1,300.67c7.49,28.55,16.56,56.62,25.36,84.78"/>
<path class="st0" d="M358.47,332.62c15.36,43.77,25.5,89.15,40.3,133.1"/>
<polygon points="528.78,913.84 542.14,909.71 545.95,917.66 616.85,909.71 620.03,921.15 469.96,944.05 462.97,952.63 
	456.61,952.63 456.61,942.46 466.51,934.19 524.33,923.38 "/>
<path d="M420.63,461.5c-8.11,1.85-13.65,5.2-16.85,7.52c-3.73,2.71-5.76,4.18-7.31,7.1c-1.7,3.19-2,7.97-2.54,17.38
	c-0.1,1.81-0.17,3.32-0.21,4.35c-1.28-1.06-3.09-2.9-4.06-5.64c-0.88-2.49-0.59-4.39-0.18-8.14c1.3-11.74,0.56-11.84,1.7-13.88
	c0.82-1.49,3.21-5.04,9.75-7.1C407.49,462.56,414.06,462.03,420.63,461.5z"/>
<g>
	<path d="M418.13,502.09c1.17-3.55-0.39-5.62-4.13-4.49c-4.2,1.07-6.49,5.6-6.58,9.67c-0.02,2.25,0.69,3.77,2.64,4.82
		c1.79,1,2.19,3.41,1.25,5.08c-0.45,0.94-1.06,1.68-1.71,2.42c0,0-0.47-0.06-0.47-0.06c-4.31-0.43-7.46-3.32-9.17-7.16
		c-1.5-3.03-3.73-7.24-5.14-10.26c2.16,3.15,4.26,6.38,6.24,9.64c1.78,3.34,4.48,5.73,8.28,6c0,0-0.79,0.31-0.79,0.31
		c0.89-1.04,1.61-2.31,1.38-3.26c-0.34-1.25-1.99-1.55-2.86-2.71c-3-4.12-0.95-10.19,2.41-13.39
		C413.03,495.22,421.42,495.33,418.13,502.09L418.13,502.09z"/>
</g>
<path d="M573.07,97.65c-3.69,12.59-9.6,21.02-10.18,20.77c-0.44-0.19,2.47-5.44,2.14-12.29c0,0,0,0,0-0.03
	c-0.06-1.08-0.17-2.19-0.42-3.36c-0.89-4.16-3.19-9.04-5.3-8.9c-1.89,0.11-2.19,3.99-4.88,9.32c-4.46,8.85-11.73,14.23-12.31,13.78
	c-0.5-0.42,4.74-5.52,8.71-14.42c5.88-13.26,5.41-27.09,4.02-27.34c-0.89-0.17-1.64,5.49-5.71,14.2c-2.63,5.6-8.4,17.61-19.94,26.29
	c-11.04,8.29-24.6,11.51-25.65,9.54c-1.33-2.52,19.44-10.43,32-32.64c7.16-12.65,9.04-25.26,8.49-25.46c-0.06,0-0.08,0.06-0.11,0.08
	c-2.08,3.3-2.91,7.82-4.52,11.37c-3,6.52-6.71,12.73-11.09,18.39c-8.54,11.04-19.77,19.94-32.47,25.65
	c-0.92,0.42-1.89,0.83-2.61,1.55c-0.55,0.53-0.94,1.22-1.3,1.89c-1.11,1.94-2.19,3.94-3.36,5.88c-0.55,0.97-2.38,2.86-2.38,3.88
	c0.33-17.86,4.13-36.14,15.75-50.2c2.8-3.38,6.02-6.52,8.32-10.26c0.17-0.28,0.3-0.53,0.47-0.8c1.03-1.83,4.38-8.93,1.83-10.59
	c-0.89-0.58-2.78,0.47-14.5,11.34c-13.24,12.28-16.53,16.22-18.03,22.04c-0.64,2.5-0.91,5.16-1.43,5.14
	c-1.2-0.04-1.65-13.96-1.7-15.47c-0.26-8.23-0.39-12.34,0.27-17.92c0.94-7.9,2.24-18.77,9.64-28.35c4.18-5.42,6.28-8.13,10.08-10.2
	c3.13-1.7,6.88-2.76,8.19-6.21c0.18-0.47,0.82-2.16,0.29-4.06c-0.99-3.59-5.01-3.94-5.84-7.19c-0.45-1.77,0.31-3.36,0.84-4.46
	c3.36-7.02,16.8-11.61,23.32-6.34c2.12,1.71,4.69,5.42,3.83,8.46c-0.64,2.25-2.88,3.36-2.55,5.52c0.17,1.05,0.86,1.83,1.69,2.55
	c4.74,3.91,11.07,4.35,16.75,6.07c7.99,2.44,15.03,7.49,20.47,13.78c7.24,8.32,12.48,18.78,13.37,29.84
	C578.04,78.46,575.87,88.17,573.07,97.65z"/>
<path d="M180.15,464.31c-1.15,10.62-2.72,22.92-3.8,35.26c-5.95,67.87,4.3,133.12,31.22,195.81
	c29.14,67.85,76.24,121.81,130.85,169.91c15.84,13.95,32.89,26.52,48.97,40.77c-6.39-3.45-12.93-6.66-19.16-10.38
	c-47.99-28.68-90.51-63.93-126.08-107.13c-17.57-21.34-36.6-42.12-50.36-65.82c-40.04-68.98-59.47-144.28-59.68-224.06
	c-0.15-58.05,5.52-115.38,28.61-169.65c13.6-31.97,33.26-59.74,59.19-82.69c6.15-5.44,14.98-9.1,23.15-10.73
	c11.46-2.28,19.89,5.68,18.08,17.28c-1.61,10.26-4.76,21.11-10.24,29.78c-22.88,36.18-54.68,113.76-66.24,160.66
	C182.32,452.79,180.86,460.43,180.15,464.31z"/>
<path d="M68.7,588.22c-9.14-16.98-35.68-25.28-51.65-16.16c-14.98,8.58-21.84,34.43-13.37,50.46c9.69,18.38,30.99,24.44,49.84,14.19
	C71.98,626.69,78.39,606.21,68.7,588.22z M31.28,634.15c-17.62-4.6-27.64-15.65-23.45-39.53c7.87,6.75,14.27,14.19,22.31,18.65
	c8.34,4.6,18.25,6.32,27.47,9.31C55.18,631.29,43.68,637.4,31.28,634.15z"/>
<path d="M99.08,693.22c8.16-3.85,15.61-0.63,20.17,8.72c3.66,7.51,0.93,17.2-5.78,20.54c-6.02,3-19.57-1.2-22.27-6.9
	C87.56,707.94,91.49,696.81,99.08,693.22z"/>
<path d="M662.43,949.51c-8.83,2.35-17.65,4.47-26.48,6.35v-18.47l-18.47-12.12l-145.56,24.12l-5.77,6.83
	c-23.77-4.59-47.54-11.18-71.07-19.65c-62.96-22.71-118.14-58.37-167.1-103.67c-26.48-24.59-52.01-50.36-78.14-75.31
	c-6.71-6.35-14.59-13.3-24.71-8.12c-13.3,6.82-19.18,21.3-17.77,35.65c2.35,22.71,20.71,40.48,35.77,55.89
	c0.71,0.59,1.29,1.29,1.88,1.88c15.65,15.89,31.18,31.89,48.48,46.01c16.36,13.65,34.6,24.83,53.31,35.07
	c36.36,19.89,75.55,34.36,115.55,44.95c82.49,21.89,165.57,28.59,249.59,8c38.71-9.53,75.19-24.71,110.14-43.89
	C702.21,938.57,682.32,943.98,662.43,949.51z M211.39,872.79c-28.01-17.65-63.07-35.3-76.72-67.66c-1.41-3.3-2.59-6.94-2.59-10.59
	c0.12-9.77,8.59-13.77,17.18-11.06c7.77,2.35,14.24,8.24,20.12,13.65c10.94,10,21.18,20.71,31.3,31.54
	c0.47,0.47,0.94,1.06,1.41,1.53c11.77,12.71,23.42,25.77,34.71,38.95c5.53,6.35,11.18,12.59,16.71,19.06
	c2.82,3.18,5.53,6.35,8.24,9.65c2.47,2.94,6,6.24,7.53,9.77C249.75,896.44,230.45,884.79,211.39,872.79z"/>
</svg>
